<svg width="566" height="712" viewBox="0 0 566 712" fill="none" xmlns="http://www.w3.org/2000/svg">
<g clip-path="url(#clip0_3_668)">
<path d="M373 21.9999C375.778 23.5229 378.564 25.0295 381.352 26.5351C407.59 41.0474 434.781 62.7377 451.035 88.0038C452.924 90.8842 454.928 93.6243 457 96.3749C464.512 106.592 471.004 118.138 475.285 130.078C475.946 131.854 476.719 133.587 477.5 135.312C479.114 139.281 480.169 143.233 481.25 147.371C482.206 150.721 483.608 153.809 485 157C485.519 158.661 486.017 160.328 486.5 162C487.706 166.163 489.265 170.024 491 174C491.514 175.495 492.013 176.996 492.5 178.5C494.066 183.322 496.044 187.876 498.125 192.5C499 195 499 195 499.438 198.375C499.942 201.624 500.796 204.066 502.172 207.027C503.524 210.248 504.408 213.602 505.352 216.961C505.819 218.972 505.819 218.972 507 220C507.124 221.011 507.248 222.021 507.375 223.062C507.929 226.551 508.872 229.372 510.18 232.629C511.196 235.567 511.839 238.524 512.5 241.562C513.556 246.359 515.034 250.495 517 255C517.526 256.993 518.024 258.994 518.5 261C519.596 265.601 521.076 269.671 523 274C523.517 275.703 524.016 277.412 524.5 279.125C525.575 282.844 526.927 285.717 529 289C529.503 290.262 529.98 291.534 530.438 292.812C531.69 296.29 533.207 299.512 534.895 302.797C539.441 311.857 543.311 321.243 547.027 330.668C548.009 333.133 548.009 333.133 549.562 335.875C551.44 339.957 552.352 344.118 553.352 348.488C553.753 350.922 553.753 350.922 555 352C555.319 354.057 555.512 356.116 555.719 358.187C555.82 360.017 555.82 360.017 557 361C557.319 363.057 557.512 365.116 557.719 367.187C557.82 369.017 557.82 369.017 559 370C559.322 372.579 559.513 375.159 559.719 377.75C559.762 379.967 559.762 379.967 561 381C561.209 382.975 561.368 384.956 561.5 386.937C561.677 391.122 561.677 391.122 563 395C563.114 396.628 563.167 398.261 563.189 399.893C563.206 400.91 563.223 401.928 563.24 402.977C563.26 404.63 563.26 404.63 563.281 406.316C563.3 407.443 563.318 408.57 563.337 409.731C563.416 414.569 563.484 419.407 563.552 424.245C563.604 427.769 563.661 431.292 563.719 434.816C563.739 436.473 563.739 436.472 563.76 438.162C563.777 439.177 563.793 440.191 563.811 441.236C563.829 442.583 563.829 442.583 563.849 443.957C563.776 445.994 563.776 445.994 565 447C565.101 449.364 565.14 451.698 565.133 454.062C565.134 454.769 565.135 455.475 565.136 456.203C565.136 457.7 565.135 459.196 565.13 460.692C565.125 462.99 565.13 465.288 565.137 467.586C565.136 469.036 565.135 470.487 565.133 471.937C565.135 472.629 565.137 473.321 565.139 474.033C565.115 478.885 565.115 478.885 564 480C563.812 482.483 563.672 484.951 563.562 487.437C562.673 504.327 562.673 504.327 560 507C559.794 508.328 559.634 509.663 559.5 511C559.111 514.889 559.111 514.889 558 516C557.835 517.155 557.67 518.31 557.5 519.5C557 523 557 523 556 524C555.876 525.031 555.752 526.062 555.625 527.125C555.083 530.487 554.234 532.94 552.812 535.996C551.84 538.395 551.247 540.8 550.625 543.312C549.365 548.149 547.528 552.308 545.195 556.715C544.146 558.722 543.234 560.719 542.375 562.812C541.113 565.737 539.635 568.276 538 571C537.307 572.65 536.614 574.299 535.922 575.949C524.758 600.783 506.775 622.421 486.23 640.055C482.459 643.344 478.801 646.76 475.125 650.156C468.573 656.148 461.832 661.813 454.813 667.25C454.032 667.861 453.251 668.472 452.447 669.101C442.577 676.77 444.5 675.5 440.5 678L433 681.5C432.564 682.152 424.449 685.328 424 686C418.189 694.528 418.125 689.795 408 693C404.425 693.412 402 693.5 402 693.5C401.154 693.273 397.871 694.234 397 694C395.319 695.222 392 695.5 390.5 696C390.5 696 385.457 697.713 381.813 698.687C380.691 699 380.691 699 379.547 699.319C372.187 701.32 364.847 702.569 357.27 703.418C355.93 703.569 354.59 703.721 353.25 703.875C352.576 703.952 351.902 704.029 351.207 704.108C345.616 704.801 340.311 706.128 334.882 707.604C329.3 709.064 323.859 709.548 318.086 709.726C314.945 709.884 314.945 709.884 311.887 711.043C308.995 712.002 307.405 712.128 304.438 711.687C303.353 711.538 303.353 711.538 302.246 711.387C300.798 711.137 299.357 710.843 297.93 710.493C293.907 709.816 289.941 709.784 285.867 709.719C284.994 709.7 284.12 709.682 283.22 709.663C279.494 709.584 275.768 709.516 272.042 709.448C269.317 709.396 266.592 709.339 263.867 709.281C263.023 709.268 262.18 709.254 261.31 709.24C257.975 709.169 255.184 709.061 252 708C249.856 707.839 247.707 707.726 245.559 707.641C232.186 707.01 219.534 706.337 206.711 702.152C203.255 701.079 200.084 700.492 196.5 700.062C191.012 699.323 185.935 697.902 180.688 696.187C179.946 695.951 179.205 695.714 178.441 695.471C174.532 694.143 171.247 692.607 167.809 690.308C164.499 688.138 162.408 687.482 158.375 687.875C153.64 688.305 151.147 687.315 147 685C146.08 684.54 145.159 684.079 144.211 683.605C142.213 682.606 140.216 681.606 138.219 680.605C136.119 679.558 134.015 678.518 131.906 677.488C115.289 669.33 115.289 669.33 111.004 664.969C108.893 662.894 107.095 661.896 104.438 660.625C98.6773 657.585 93.4958 653.914 88.25 650.062C87.0443 649.185 87.0443 649.185 85.8142 648.289C81.3571 644.978 77.3321 641.514 73.4746 637.52C71.7801 635.773 69.988 634.19 68.125 632.625C57.9803 623.763 50.5192 614.104 43 603C42.2113 601.85 41.4223 600.7 40.6328 599.551C34.842 591.017 30.0462 582.225 25.4805 572.988C24.537 571.084 23.5824 569.185 22.6133 567.293C20.3615 562.891 18.3457 558.532 16.6836 553.875C15.5845 550.86 14.2773 547.943 13 545C11.4159 541.301 10.3585 537.665 9.43753 533.75C8.82234 530.07 8.82234 530.07 7.00003 527C6.6667 524.667 6.33336 522.333 6.00003 520C5.67003 519.67 5.34003 519.34 5.00003 519C4.6808 516.943 4.48842 514.884 4.28128 512.812C4.18005 510.983 4.18005 510.983 3.00003 510C2.67652 507.16 2.48699 504.319 2.28128 501.469C2.26618 499.059 2.26618 499.059 1.00003 498C0.901803 496.532 0.872047 495.059 0.870636 493.588C0.865908 492.181 0.865908 492.181 0.861084 490.746C0.863108 489.727 0.865132 488.707 0.867218 487.656C0.866261 486.617 0.865305 485.577 0.864319 484.506C0.863637 482.304 0.865492 480.101 0.869659 477.899C0.875007 474.515 0.869715 471.13 0.863312 467.746C0.863973 465.612 0.865254 463.478 0.867218 461.344C0.865194 460.324 0.86317 459.304 0.861084 458.253C0.864236 457.316 0.867388 456.378 0.870636 455.412C0.871432 454.582 0.872227 453.753 0.873047 452.898C1.00003 451 1.00003 451 2.00003 450C2.20935 447.837 2.368 445.669 2.50003 443.5C2.88892 437.111 2.88892 437.111 4.00003 436C4.20703 434.505 4.36682 433.003 4.50003 431.5C4.88892 427.111 4.88892 427.111 6.00003 426C6.20892 424.004 6.36779 422.002 6.50003 420C6.88892 414.111 6.88892 414.111 8.00003 413C8.20972 410.67 8.36818 408.335 8.50003 406C8.88892 399.111 8.38889 398.611 9.5 397.5C9.61813 395.665 10.1674 394.325 10.1895 392.486C10.2146 390.719 10.2146 390.719 10.2401 388.917C10.2537 387.635 10.2673 386.352 10.2813 385.031C10.3094 383.037 10.3375 381.042 10.366 379.047C10.4148 375.532 10.4572 372.016 10.5 368.5C10.5511 364.308 10.6032 360.117 10.663 355.926C10.6998 353.311 10.7322 350.697 10.7599 348.083C10.785 346.316 10.785 346.316 10.8106 344.514C10.8231 343.471 10.8356 342.428 10.8485 341.353C11 339 11 339 12 338C12.2097 335.67 12.3682 333.335 12.5 331C12.8889 324.111 12.8889 324.111 14 323C14.2093 320.837 14.368 318.669 14.5 316.5C14.8889 310.111 14.8889 310.111 16 309C16.5382 306.169 17.0361 303.343 17.5 300.5C18.8649 292.135 18.8649 292.135 20 291C20.6265 287.973 21.1893 284.943 21.7188 281.898C22.5826 277.267 24.0842 273.329 26 269C26.6839 266.74 27.33 264.469 27.9375 262.187C29.3671 257.042 31.0057 252.139 33.0742 247.219C33.9145 245.205 34.6537 243.183 35.375 241.125C37.4457 235.535 40.2907 230.299 43 225C43.4554 224.065 43.4554 224.065 43.92 223.112C46.2419 218.36 48.8047 213.847 51.625 209.375C52.0603 208.682 52.4956 207.989 52.9441 207.275C56.1443 202.232 59.5222 197.347 63.0266 192.512C66.6935 187.453 70.2694 182.334 73.8125 177.187C74.3518 176.411 74.891 175.635 75.4466 174.835C79.8197 168.463 83.6215 161.886 87 154.937C88.3666 152.149 89.8808 149.548 91.5625 146.937C93.8075 143.43 95.3821 139.842 97 136C97.8176 134.491 98.652 132.992 99.5 131.5C101.62 127.76 103.34 123.969 105 120C108.234 112.867 112.481 106.495 116.87 100.038C118.111 98.2081 119.337 96.3692 120.563 94.5292C125.82 86.72 131.514 79.8428 138 72.9999C139.299 71.5275 140.593 70.0496 141.875 68.5624C146.658 63.0818 146.658 63.0818 149 60.9999C149.66 60.9999 150.32 59.5 151 59.5C151.33 58.51 151.66 59.0199 152 57.9999C153.524 56.6281 153.524 56.6281 155.516 55.2069C156.262 54.667 157.008 54.127 157.776 53.5707C158.593 52.9905 159.409 52.4102 160.25 51.8124C165.699 47.8861 171.118 43.9425 176.406 39.8007C185.234 32.8911 193.77 26.4966 203.871 21.578C207.025 20.0852 207.025 20.0852 209.746 18.0507C214.141 15.2806 218.741 13.6609 223.625 11.9374C225.104 11.4103 225.104 11.4103 226.614 10.8725C237.297 7.11784 247.609 4.75184 258.848 3.42959C262.019 3.0964 262.019 3.0964 265 1.9999C303.117 -3.3417 339.833 2.78224 373 21.9999Z" fill="#9271EB"/>
<path d="M310.125 659.875C311.573 659.885 313.021 659.894 314.469 659.902C317.979 659.924 321.49 659.958 325 660C325 664 325 664 323 667C328.94 667 334.88 667 341 667C341 668.98 341 670.96 341 673C334.482 675.868 328.138 678.013 321.168 679.496C318.806 680.009 318.806 680.009 315.812 681.062C309.146 683.285 302.153 683.433 295.188 683.812C294.145 683.889 293.103 683.966 292.029 684.045C285.276 684.397 279.722 683.887 274 680C272.438 677.25 272.438 677.25 272 675C272.99 674.67 273.98 674.34 275 674C275.66 674.33 276.32 674.66 277 675C277.66 673.68 278.32 672.36 279 671C279.99 671 280.98 671 282 671C282 670.34 282 669.68 282 669C281.051 669.021 280.103 669.041 279.125 669.062C276 669 276 669 274 668C274 667.34 274 666.68 274 666C275.453 665.363 276.913 664.741 278.375 664.125C279.593 663.603 279.593 663.603 280.836 663.07C290.531 659.791 300.013 659.752 310.125 659.875Z" fill="#6B53AE"/>
<path d="M460 369C466.93 369 473.86 369 481 369C481.495 370.98 481.495 370.98 482 373C478.709 373.462 475.417 373.92 472.125 374.375C471.132 374.513 470.138 374.651 469.115 374.793C462.814 375.655 456.515 376.375 450.188 377C445.51 377.466 441.129 378.073 436.688 379.688C433.088 380.969 431.544 381.258 428 380C428.66 379.67 429.32 379.34 430 379C430 378.34 430 377.68 430 377C432.506 375.496 434.315 374.958 437.25 374.562C440.288 374.107 442.043 373.625 444.75 372.438C449.74 370.414 454.701 370.737 460 371C460 370.34 460 369.68 460 369Z" fill="#6B53AE"/>
<path d="M310.125 659.875C311.573 659.885 313.021 659.894 314.469 659.902C317.979 659.924 321.49 659.958 325 660C325 664 325 664 323 667C328.94 667 334.88 667 341 667C340.67 667.99 340.34 668.98 340 670C338.235 669.766 338.235 669.766 336.434 669.527C326.795 668.352 317.397 667.83 307.688 668.25C306.728 668.289 305.769 668.327 304.781 668.367C299.523 668.649 295.018 669.449 290 671C287.284 671.218 284.732 671.096 282 671C282 670.34 282 669.68 282 669C281.051 669.021 280.103 669.041 279.125 669.062C276 669 276 669 274 668C274 667.34 274 666.68 274 666C275.453 665.363 276.913 664.741 278.375 664.125C279.593 663.603 279.593 663.603 280.836 663.07C290.531 659.791 300.013 659.752 310.125 659.875Z" fill="#6B53AE"/>
<path d="M80.207 489.867C81.4336 489.866 82.6601 489.865 83.9238 489.863C85.2071 489.867 86.4904 489.871 87.8125 489.875C89.72 489.869 89.72 489.869 91.666 489.863C93.5116 489.865 93.5116 489.865 95.3945 489.867C96.5171 489.868 97.6396 489.869 98.7961 489.871C101.944 489.998 104.908 490.412 108 491C108 491.66 108 492.32 108 493C106.902 493.075 105.805 493.15 104.674 493.228C100.521 493.515 96.3684 493.814 92.2163 494.117C90.4343 494.245 88.6521 494.37 86.8696 494.492C71.4846 495.545 56.5615 496.891 42.3125 503.188C39.744 504.09 37.7028 504.154 35 504C36 501 36 501 37.8125 499.812C40 499 40 499 44 499C44 498.34 44 497.68 44 497C51.8075 493.592 59.2052 492.245 67.5938 491.395C72.0046 490.884 75.7023 489.872 80.207 489.867Z" fill="#6B53AE"/>
<path d="M476 590C476.66 590.99 477.32 591.98 478 593C477.125 595.437 477.125 595.437 475 598C472.501 598.555 470.111 598.694 467.555 598.82C464.782 598.924 464.782 598.924 461.375 600.062C457.37 601.175 454.14 601.145 450 601C450.172 598.707 450.172 598.707 451 596C458.132 590.331 467.078 588.282 476 590Z" fill="#6B53AE"/>
<path d="M110 592C113.11 594.544 115.748 597.119 117 601C116.708 602.343 116.379 603.679 116 605C109.014 605.506 104.798 605.033 99 601C99.4822 595.575 99.4822 595.575 101.688 593.125C104.785 591.618 106.591 591.443 110 592Z" fill="#6B53AE"/>
<path d="M319.25 32.8124C320.146 32.8125 321.041 32.8125 321.964 32.8126C339.931 32.9652 339.931 32.9652 346 35.9999C346 36.6599 346 37.3199 346 37.9999C341.553 38.0495 337.105 38.0857 332.658 38.1097C331.147 38.1198 329.636 38.1334 328.125 38.1508C325.945 38.1752 323.766 38.1864 321.586 38.1952C319.622 38.2109 319.622 38.2109 317.619 38.2269C314.058 38.0035 311.308 37.2934 308 35.9999C308 35.3399 308 34.6799 308 33.9999C311.477 32.2612 315.419 32.8092 319.25 32.8124Z" fill="#6B53AE"/>
<path d="M80.207 489.867C81.4336 489.866 82.6601 489.865 83.9238 489.863C85.2071 489.867 86.4904 489.871 87.8125 489.875C89.72 489.869 89.72 489.869 91.666 489.863C93.5116 489.865 93.5116 489.865 95.3945 489.867C96.5171 489.868 97.6396 489.869 98.7961 489.871C101.944 489.998 104.908 490.412 108 491C108 491.66 108 492.32 108 493C84.2112 495.388 84.2112 495.388 74 495C74 494.34 74 493.68 74 493C73.01 492.34 72.02 491.68 71 491C74.2914 489.903 76.7428 489.871 80.207 489.867Z" fill="#6B53AE"/>
<path d="M39 373C44.5608 372.421 47.7572 373.419 52.3984 376.555C54 378 54 378 55 380.812C55 381.534 55 382.256 55 383C48.9161 383.372 44.2991 383.202 39 380C38 377.438 38 377.438 38 375C38.33 374.34 38.66 373.68 39 373Z" fill="#6B53AE"/>
<path d="M485 209C485.33 209.99 485.66 210.98 486 212C484.564 212.506 483.126 213.004 481.688 213.5C480.487 213.918 480.487 213.918 479.262 214.344C477 215 477 215 474 215C473.031 215.206 472.061 215.413 471.062 215.625C467.819 216.022 466.677 215.75 464 214C464.188 212.125 464.188 212.125 465 210C470.466 206.474 478.952 207.387 485 209Z" fill="#6B53AE"/>
<path d="M296.637 660.832C297.718 660.827 297.718 660.827 298.82 660.822C300.336 660.817 301.851 660.815 303.366 660.815C305.69 660.813 308.014 660.794 310.338 660.775C311.812 660.773 313.287 660.771 314.762 660.77C315.458 660.762 316.153 660.755 316.87 660.748C321.771 660.771 321.771 660.771 324 663C322.767 663.03 322.767 663.03 321.509 663.06C317.777 663.156 314.045 663.265 310.312 663.375C308.372 663.421 308.372 663.421 306.393 663.469C305.145 663.507 303.898 663.546 302.613 663.586C301.466 663.617 300.32 663.649 299.138 663.681C296.041 663.996 293.828 664.755 291 666C288.543 666.195 288.543 666.195 286.188 666.125C285.397 666.107 284.607 666.089 283.793 666.07C283.201 666.047 282.61 666.024 282 666C282.688 664.063 282.688 664.063 284 662C288.145 660.782 292.351 660.839 296.637 660.832Z" fill="#6B53AE"/>
<path d="M279 671C279.99 671.33 280.98 671.66 282 672C281.67 672.66 281.34 673.32 281 674C283.97 674.33 286.94 674.66 290 675C290 675.66 290 676.32 290 677C292.97 677.495 292.97 677.495 296 678C296 678.33 296 678.66 296 679C289.169 680.182 282.874 679.745 276 679C277.32 679.66 278.64 680.32 280 681C278 682 278 682 276 681.375C273.429 679.607 272.923 677.924 272 675C272.99 674.67 273.98 674.34 275 674C275.66 674.33 276.32 674.66 277 675C277.66 673.68 278.32 672.36 279 671Z" fill="#6B53AE"/>
<path d="M243 343C246.842 344.112 250.274 345.605 253.812 347.438C258.418 349.8 263.045 351.528 268 353C267.512 357.799 266.846 361.527 265 366C279.574 366.96 294.085 367.122 308.688 367.062C310.865 367.057 313.043 367.053 315.221 367.049C320.48 367.038 325.74 367.021 331 367C331 362.05 331 357.1 331 352C338.062 350.688 338.062 350.688 340.242 350.296C344.826 349.41 348.765 347.966 353 346C353 346.99 352.5 347.98 352.5 349C351.757 349.722 351.515 350.444 350.75 351.188C347.98 354.021 346.749 356.283 345.105 359.797C343.128 363.739 340.778 367.571 338 371C337.34 371 337.18 372.5 336.5 372.5C336.238 373.065 334.228 375 334.5 374.5C333.183 376.998 332.388 377.371 330.688 379.625C330.114 380.401 329.54 381.177 328.949 381.977C326.719 384.291 325.028 384.997 322 386C321.175 386.342 320.35 386.683 319.5 387.035C318.675 387.374 317.85 387.713 317 388.062C316.175 388.404 315.35 388.746 314.5 389.098C308.645 391.211 302.975 391.215 296.812 391.25C295.917 391.271 295.022 391.291 294.1 391.312C285.026 391.365 277.297 389.579 269.938 384.062C268.559 383.059 268.559 383.059 267.152 382.035C264.944 379.947 265.5 380.5 263.5 377.5C262.5 376.5 261.18 374 260.5 374C258.806 371.698 258.732 371.4 257.188 369C256.739 368.312 256.29 367.625 255.828 366.917C254.943 365.556 254.061 364.194 253.182 362.829C252.222 361.344 251.246 359.87 250.266 358.398C248.026 354.987 247.5 355 246 351C244.5 349.5 244.68 348 244 348C243.67 346.35 243.34 344.7 243 343Z" fill="#242226"/>
<path d="M281.148 354.473C285.35 355.25 289.548 355.379 293.812 355.563C295.236 355.626 295.236 355.626 296.688 355.691C307.79 356.141 319.892 352.095 331 352C331.027 353.646 330.984 359.354 331 361C331.012 361.917 330.988 362.556 331 363.5C331 366.5 331 365.5 331 367C325.807 367.949 318.785 368.147 313.531 368.133C312.733 368.134 311.935 368.135 311.113 368.136C309.429 368.136 307.745 368.135 306.061 368.13C303.535 368.125 301.01 368.13 298.484 368.137C272.351 368.149 272.351 368.149 265 366C265.523 363.237 266.109 360.674 267 358C267.66 358 267.32 353 268 353C269.5 353.5 270 353.5 271 353.5C277.021 353.5 277.245 353.614 281.148 354.473Z" fill="#F1EFEE"/>
<path d="M238.062 129.812C239.715 129.794 239.715 129.794 241.4 129.775C242.983 129.772 242.983 129.772 244.598 129.77C245.562 129.765 246.526 129.761 247.52 129.757C250 130 250 130 253 132C251.972 132.083 251.972 132.083 250.924 132.168C247.782 132.423 244.641 132.68 241.5 132.938C240.422 133.025 239.345 133.112 238.234 133.201C232.468 133.676 229.235 135.227 223.5 136L221 137C220.215 137.34 219.43 137.681 218.621 138.031C211.024 141.536 204.845 145.31 201 153C200.34 153 199.68 153 199 153C199.525 148.973 200.56 146.902 203.312 143.938C204.204 142.961 204.204 142.961 205.113 141.965C205.736 141.316 206.359 140.668 207 140C207.623 139.314 208.245 138.628 208.887 137.922C211.288 135.738 213.53 134.606 216.5 133.312C217.438 132.896 218.377 132.48 219.344 132.051C225.561 129.591 231.44 129.816 238.062 129.812Z" fill="#483874"/>
<path d="M354 124C372.347 123.273 372.347 123.273 380.621 126.949C382.955 127.98 385.151 128.535 387.625 129.125C393.567 131.056 397.568 135.959 401 141C401.75 143.82 401.75 143.82 402 146C398.964 144.876 397.844 143.799 395.812 141.188C392.627 137.171 388.524 135.238 384 133C383.435 132.676 382.871 132.353 382.289 132.019C376.841 129.016 371.763 128.078 365.625 127.375C363.845 127.161 362.067 126.94 360.289 126.711C359.124 126.576 359.124 126.576 357.936 126.439C356 126 356 126 354 124Z" fill="#483874"/>
<path d="M311.5 254.119C327.792 280.192 359.238 289.932 381.736 275.874C404.234 261.816 409.264 229.283 392.972 203.21C376.68 177.136 345.234 167.396 322.736 181.455C300.238 195.513 295.208 228.046 311.5 254.119Z" fill="white"/>
<path d="M311.5 254.119C327.792 280.192 359.238 289.932 381.736 275.874C404.234 261.816 409.264 229.283 392.972 203.21C376.68 177.136 345.234 167.396 322.736 181.455C300.238 195.513 295.208 228.046 311.5 254.119Z" fill="white"/>
<path d="M289.972 253.119C273.679 279.192 242.234 288.932 219.736 274.874C197.238 260.816 192.208 228.283 208.5 202.21C224.792 176.136 256.238 166.396 278.736 180.455C301.234 194.513 306.264 227.046 289.972 253.119Z" fill="white"/>
<path d="M289.972 253.119C273.679 279.192 242.234 288.932 219.736 274.874C197.238 260.816 192.208 228.283 208.5 202.21C224.792 176.136 256.238 166.396 278.736 180.455C301.234 194.513 306.264 227.046 289.972 253.119Z" fill="white"/>
<path d="M339 230C339 235.523 334.523 240 329 240C323.477 240 319 235.523 319 230C319 224.477 323.477 220 329 220C334.523 220 339 224.477 339 230Z" fill="#242226"/>
<path d="M283 231C283 236.523 278.523 241 273 241C267.477 241 263 236.523 263 231C263 225.477 267.477 221 273 221C278.523 221 283 225.477 283 231Z" fill="#242226"/>
</g>
<defs>
<clipPath id="clip0_3_668">
<rect width="566" height="712" fill="white"/>
</clipPath>
</defs>
</svg>
